<svg version="1.2" xmlns="http://www.w3.org/2000/svg" viewBox="0 0 2672 512" width="2672" height="512"><defs><linearGradient id="P" gradientUnits="userSpaceOnUse"/><linearGradient id="g1" x1="1539.3" y1="112.9" x2="2630.3" y2="441.8" href="#P"><stop stop-color="#8a98cc"/><stop offset="1" stop-color="#0d172d"/></linearGradient><linearGradient id="g2" x1="1548.9" y1="81.1" x2="2639.9" y2="410.1" href="#P"><stop stop-color="#8a98cc"/><stop offset="1" stop-color="#0d172d"/></linearGradient><linearGradient id="g3" x1="1564.6" y1="29" x2="2655.6" y2="357.9" href="#P"><stop stop-color="#8a98cc"/><stop offset="1" stop-color="#0d172d"/></linearGradient><linearGradient id="g4" x1="1580.5" y1="-23.8" x2="2671.5" y2="305.1" href="#P"><stop stop-color="#8a98cc"/><stop offset="1" stop-color="#0d172d"/></linearGradient><linearGradient id="g5" x1="1603.8" y1="-101.1" x2="2694.8" y2="227.9" href="#P"><stop stop-color="#8a98cc"/><stop offset="1" stop-color="#0d172d"/></linearGradient><linearGradient id="g6" x1="1560.7" y1="41.9" x2="2651.7" y2="370.9" href="#P"><stop stop-color="#8a98cc"/><stop offset="1" stop-color="#0d172d"/></linearGradient></defs><style>.a{fill:#fff}.b{fill:url(#g1)}.c{fill:url(#g2)}.d{fill:url(#g3)}.e{fill:url(#g4)}.f{fill:url(#g5)}.g{fill:url(#g6)}</style><path class="a" d="m1463.7 18.1h1196.4v476.5h-1196.4z"/><path class="a" d="m104 201.2v159.3h60.1v18.2h-142.5v-18.2h62.9v-142.5h-62.9v-18.2l82.4 1.4c0-1.4 0 0 0 0zm-25.1-54.5c0-1.4 1.4-2.8 2.8-5.6 1.4-1.4 2.8-2.8 4.2-2.8 1.4 0 4.2-1.4 7-1.4 2.8 0 4.2 0 6.9 1.4 2.8 1.4 2.8 1.4 4.2 2.8 1.4 1.4 2.8 2.8 2.8 4.2 0 1.4 1.4 4.2 1.4 5.6 0 4.2-1.4 7-4.2 9.8-2.8 2.8-5.5 4.2-11.1 4.2-5.6 0-8.4-1.4-11.2-4.2-2.8-2.8-2.8-5.6-2.8-9.8q0 0 0-4.2z"/><path class="a" d="m220 220.8c2.8-7 8.4-12.6 14-16.8 5.6-4.2 14-7 23.8-7 5.5 0 9.7 0 13.9 1.4 4.2 1.4 7 2.8 11.2 5.6 2.8 1.4 4.2 4.2 7 7 2.8 2.8 2.8 5.6 4.2 8.4 1.4-2.8 4.2-5.6 5.6-8.4 1.4-2.8 5.6-5.6 8.4-7 2.8-2.8 6.9-4.2 11.1-5.6 4.2-1.4 8.4-1.4 14-1.4 7 0 14 1.4 19.6 4.2 5.6 2.8 9.8 5.6 12.5 9.8 2.8 4.2 5.6 9.8 7 15.3 1.4 5.6 2.8 12.6 2.8 19.6v131.4h-18.1v-131.4c0-4.2 0-7-1.4-11.2-1.4-4.2-1.4-7-4.2-9.7-1.4-2.8-4.2-5.6-8.4-7-4.2-1.4-8.4-2.8-12.6-2.8-5.6 0-9.8 1.4-14 2.8-4.2 1.4-6.9 4.2-9.7 5.6-2.8 2.7-4.2 5.5-5.6 8.3-1.4 2.8-4.2 7-4.2 9.8v1.4 1.4 134.2h-18.2v-134.2c0-4.2 0-7-1.4-11.2-1.4-4.2-2.8-7-4.2-9.7-1.4-2.8-4.2-5.6-8.4-7-4.2-1.4-6.9-2.8-12.5-2.8-5.6 0-9.8 1.4-14 2.8-4.2 1.4-7 4.2-9.8 7-2.8 2.7-4.2 5.5-5.6 8.3-1.4 2.8-2.8 7-2.8 9.8v135.6h-18.1v-177.5h18.1z"/><path fill-rule="evenodd" class="a" d="m461.8 374.5c-9.8-4.2-18.2-11.2-26.6-18.2-7-8.4-12.6-16.8-16.8-27.9-4.1-11.2-5.5-22.4-5.5-33.6v-7c0-12.5 1.4-23.7 5.5-34.9 4.2-11.2 9.8-21 16.8-27.9 7-8.4 15.4-14 25.2-19.6 9.8-5.6 19.5-7 30.7-7 11.2 0 22.4 2.8 30.8 7 8.3 4.2 16.7 9.8 22.3 16.8 5.6 6.9 11.2 16.7 14 26.5 2.8 9.8 4.2 21 5.6 32.1v12.6h-132.8v5.6c0 9.8 2.8 18.2 5.6 26.6q4.2 12.5 12.6 20.9c5.6 7 12.6 11.2 19.6 15.4 6.9 4.2 16.7 5.6 26.5 5.6 11.2 0 21-1.4 29.4-5.6 8.3-4.2 16.7-9.8 22.3-18.2l12.6 9.8c-7 9.8-15.4 16.8-26.6 22.4-11.1 5.6-23.7 8.4-39.1 8.4-11.2-2.8-22.3-4.2-32.1-9.8zm8.4-155.1c-7 2.8-12.6 6.9-18.2 12.5-5.6 5.6-9.8 11.2-12.6 19.6-2.8 8.4-5.6 15.4-7 23.8h111.8v-1.4q0-10.5-4.2-21c-2.8-7-5.6-14-11.2-18.2q-6.2-8.4-16.7-12.5c-7-2.8-14-4.2-22.4-4.2-5.6-2.8-14-1.4-19.5 1.4z"/><path class="a" d="m752.4 198.4c5.6 0 9.8 1.4 12.6 2.8l-2.8 19.6c-4.2-1.4-8.4-1.4-14-2.8-5.6-1.4-9.8-1.4-13.9-1.4-8.4 0-16.8 1.4-23.8 2.8-7 1.4-14 4.2-19.6 8.3-5.6 4.2-9.7 8.4-13.9 15.4-4.2 7-7 12.6-9.8 21v113.2h-19.6v-177.5h18.2l1.4 27.9v8.4c7-12.5 16.8-20.9 27.9-27.9 11.2-7 26.6-9.8 42-9.8 5.5 0 11.1 0 15.3 0z"/><path class="a" d="m942.5 320c-2.8-4.2-5.6-7-9.8-9.8q-6.3-4.2-16.8-8.4c-7-2.8-14-4.2-20.9-5.6-8.4-1.4-16.8-4.2-25.2-7-8.4-2.8-14-5.6-21-9.8-5.5-4.1-11.1-8.3-15.3-13.9-4.2-5.6-5.6-11.2-5.6-19.6 0-7 1.4-14 5.6-20.9 4.2-7 8.4-11.2 15.3-15.4 5.6-4.2 12.6-7 21-9.8 8.4-2.8 16.8-2.8 25.2-2.8 9.7 0 18.1 1.4 26.5 4.2 8.4 2.8 15.4 5.6 22.4 9.8 5.6 4.2 11.1 9.8 15.3 16.7 4.2 7 5.6 14 5.6 22.4h-19.5c0-5.6-1.4-11.2-4.2-15.4-2.8-4.2-7-8.4-11.2-11.1-4.2-2.8-9.8-5.6-15.4-7-5.6-1.4-12.6-2.8-18.1-2.8-5.6 0-11.2 0-16.8 1.4-5.6 1.4-11.2 2.8-15.4 5.6-4.2 2.8-8.4 5.5-11.2 9.7-2.8 4.2-4.2 8.4-4.2 14 0 5.6 1.4 9.8 4.2 14 2.8 4.2 5.6 7 9.8 9.8 4.2 2.8 9.8 5.6 16.8 7 7 1.4 12.6 2.8 19.5 4.1 8.4 1.4 18.2 4.2 25.2 7 7 2.8 15.4 5.6 21 9.8 5.6 4.2 11.1 8.4 15.3 14 4.2 5.6 5.6 12.6 5.6 21 0 6.9-1.4 13.9-5.6 20.9-4.2 7-8.4 11.2-13.9 15.4-7 4.2-14 8.4-23.8 11.2-9.8 2.8-18.2 2.8-26.5 2.8-9.8 0-19.6-1.4-28-4.2-8.4-2.8-16.8-5.6-23.8-11.2-6.9-4.2-12.5-9.8-15.3-16.8-2.8-7-5.6-14-7-22.3h19.6c0 6.9 2.7 12.5 6.9 18.1 4.2 5.6 8.4 8.4 12.6 11.2 5.6 2.8 11.2 4.2 16.8 5.6 5.6 1.4 12.6 1.4 18.2 1.4 8.3 0 15.3-1.4 22.3-2.8 7-1.4 12.6-4.2 18.2-8.4 2.8-2.8 5.6-5.6 7-8.4 1.4-2.8 2.8-7 2.8-11.2q-2.1-6.2-4.2-12.5z"/><path fill-rule="evenodd" class="a" d="m1142.3 366.1c0-4.2-1.4-8.4-1.4-14-2.8 4.2-7 8.4-11.2 12.6-4.2 4.2-9.8 7-15.4 9.8-5.5 2.8-11.1 4.2-16.7 5.6-5.6 1.4-12.6 1.4-19.6 1.4-8.4 0-15.4-1.4-23.7-4.2-8.4-2.8-14-5.6-18.2-9.8-4.2-4.2-9.8-9.8-12.6-15.4q-4.2-8.4-4.2-20.9c0-9.8 2.8-18.2 7-26.6 4.2-8.4 11.2-12.6 18.2-18.2 7-4.2 16.7-6.9 26.5-9.7 9.8-2.8 21-2.8 32.2-2.8h39.1v-19.6c0-7-1.4-12.6-4.2-18.2-2.8-5.6-5.6-9.8-9.8-12.5-4.2-2.8-9.8-5.6-15.4-8.4-5.5-2.8-12.5-2.8-19.5-2.8-7 0-12.6 1.4-18.2 2.8-5.6 1.4-11.2 4.2-15.4 7-4.1 2.8-8.3 6.9-11.1 11.1-2.8 4.2-4.2 9.8-4.2 15.4h-19.6c0-7 2.8-14 5.6-21 2.8-6.9 8.4-11.1 15.4-16.7 5.6-4.2 13.9-8.4 22.3-11.2 8.4-2.8 16.8-4.2 26.6-4.2 9.8 0 18.1 1.4 26.5 4.2 8.4 2.8 15.4 5.6 21 11.2 5.6 5.6 11.2 11.2 14 18.1 2.8 7 5.6 15.4 5.6 25.2v85.2c0 5.6 0 12.6 1.4 18.2q2 8.4 4.1 16.8v1.4h-20.9c-2.8-1.4-2.8-5.6-4.2-9.8zm-41.9-4.2c5.6-1.4 12.5-4.2 16.7-7 4.2-2.8 9.8-7 14-11.2 4.2-4.2 7-8.4 9.8-13.9v-39.2h-36.3c-9.8 0-19.6 1.4-28 2.8-8.4 1.4-16.8 4.2-22.3 8.4-5.6 2.8-8.4 7-11.2 11.2q-4.2 6.3-4.2 16.8c0 5.5 1.4 9.7 2.8 13.9 1.4 4.2 5.6 8.4 8.4 11.2 4.2 2.8 8.3 5.6 12.5 7 4.2 1.4 9.8 2.8 16.8 2.8 8.4 0 14-1.4 21-2.8zm46.1-216.6c-1.4 4.2-4.2 7-5.6 11.2-2.8 2.8-5.6 5.6-9.8 7-4.2 1.4-8.4 2.8-12.6 2.8-4.2 0-8.3-1.4-11.1-2.8-2.8-1.4-7-2.8-9.8-5.6-2.8-1.4-5.6-4.2-8.4-5.6-2.8-1.4-5.6-2.8-8.4-2.8-2.8 0-5.6-1.4-7 0-1.4 1.4-4.2 1.4-7 1.4-2.8 1.4-5.6 2.8-8.4 5.6-2.7 2.8-2.7 7-2.7 9.8l-12.6-1.4c0-4.2 1.4-8.4 2.8-12.6 1.4-4.2 4.2-7 7-11.2 2.8-2.8 5.5-5.6 9.7-7 4.2-1.4 8.4-2.8 12.6-2.8 4.2 0 8.4 1.4 12.6 2.8 4.2 1.4 7 4.2 11.2 5.6 2.8 2.8 7 4.2 9.8 5.6 2.7 1.4 6.9 2.8 11.1 2.8 2.8 0 5.6 0 7-1.4 1.4-1.4 4.2-2.8 5.6-4.2 1.4-1.4 2.8-4.2 4.2-7 1.4-2.8 1.4-5.6 1.4-7l12.6 2.8c-1.4 5.6-2.8 9.8-4.2 14z"/><path fill-rule="evenodd" class="a" d="m1220.5 252.9c4.2-11.2 8.4-19.6 15.4-27.9 7-8.4 15.4-15.4 25.2-19.6 9.8-4.2 20.9-7 33.5-7 12.6 0 23.8 2.8 33.5 7 9.8 4.2 18.2 11.2 25.2 19.6 7 8.3 11.2 18.1 15.4 27.9 4.2 9.8 5.6 22.4 5.6 33.5v5.6c0 12.6-1.4 23.8-5.6 33.6-4.2 9.7-8.4 19.5-15.4 27.9-7 8.4-15.4 14-25.2 19.6-9.7 5.6-20.9 7-33.5 7-12.6 0-23.7-2.8-33.5-7-9.8-4.2-18.2-11.2-25.2-19.6-7-8.4-12.6-18.2-15.4-27.9-2.8-9.8-5.5-22.4-5.5-33.6v-4.2c0-12.5 1.4-23.7 5.5-34.9zm18.2 67.1c2.8 8.4 7 16.7 11.2 23.7 5.6 7 11.2 12.6 18.2 16.8 6.9 4.2 15.3 5.6 25.1 5.6 9.8 0 18.2-1.4 25.2-5.6 6.9-4.2 13.9-9.8 18.1-16.8 5.6-7 8.4-13.9 11.2-23.7 2.8-9.8 4.2-18.2 4.2-26.6v-5.6c0-9.7-1.4-18.1-4.2-26.5-2.8-8.4-7-16.8-11.2-23.8-5.6-7-11.2-12.5-18.1-16.7-7-4.2-15.4-5.6-25.2-5.6-9.8 0-18.2 1.4-25.1 5.6-7 4.2-14 9.7-18.2 16.7-5.6 7-8.4 14-11.2 23.8-2.8 9.8-4.2 18.1-4.2 26.5v5.6c0 8.4 1.4 18.2 4.2 26.6z"/><path class="b" d="m1711.6 170q4.1 0.4 7.3 1.2v42.8q-3.4-1-9.4-1.8-6-0.8-11-0.8-10.6 0-18.9 4.6-8.3 4.6-13.2 12.7-4.8 8.2-4.8 18.8v98.4h-48.2v-173.9h46.8v30.3h1.8q4.7-16.1 15.9-24.5 11.2-8.3 25.8-8.3 3.7 0 7.9 0.5z"/><path fill-rule="evenodd" class="c" d="m1888.4 219.3q6.2 16.5 6.2 38.7v13.3h-118.4v0.1q0 12.9 4.8 22.3 4.8 9.4 13.6 14.5 8.9 5.1 21 5.1 8 0 14.7-2.3 6.7-2.3 11.4-6.8 4.8-4.5 7.3-11.1l44.6 3q-3.4 16-13.9 28-10.5 11.9-26.9 18.5-16.5 6.7-38 6.7-26.8 0-46.1-11-19.3-10.9-29.8-31-10.4-20.1-10.4-47.6 0-26.8 10.4-47.1 10.5-20.2 29.4-31.5 19-11.4 44.6-11.4 17.2 0 32.1 5.5 14.8 5.5 26 16.5 11.1 11 17.4 27.6zm-39.2 22.1q0-10.4-4.5-18.5-4.6-8-12.5-12.6-8-4.6-18.5-4.6-11 0-19.5 5.1-8.4 5-13.1 13.5c-3 5.1-4.5 10.9-4.8 17.1z"/><path fill-rule="evenodd" class="d" d="m2067.5 201.9q6 11.2 6 26.7v117.3h-45.7v-24.1h-1.3q-4.2 8.1-11.2 14.3-7.1 6.2-16.9 9.6-9.9 3.4-22.8 3.5-16.6-0.1-29.6-5.9-13.1-5.8-20.6-17.3-7.5-11.5-7.5-28.7 0-14.5 5.3-24.3 5.3-9.9 14.5-15.9 9.2-6 20.9-9 11.7-3.1 24.6-4.3 15.2-1.6 24.5-3 9.2-1.4 13.4-4.3 4.2-2.8 4.2-8.3v-0.7q0-10.8-6.7-16.7-6.7-5.8-19.1-5.8-13 0-20.7 5.7-7.7 5.7-10.2 14.3l-44.6-3.6q3.4-15.9 13.4-27.5 9.9-11.6 25.7-17.9 15.8-6.3 36.6-6.3 14.5 0 27.8 3.4 13.3 3.4 23.7 10.6 10.3 7.1 16.3 18.2zm-41.8 63.4q-2.3 1.5-6.2 2.6-3.9 1.2-8.8 2.2-4.9 1-9.7 1.7-4.9 0.7-8.8 1.3-8.5 1.2-14.9 4-6.3 2.7-9.8 7.3-3.5 4.5-3.5 11.3 0 9.9 7.2 15 7.2 5.2 18.2 5.2 10.7 0 18.8-4.3 8.2-4.2 12.8-11.5 4.7-7.2 4.7-16.4z"/><path class="e" d="m2157.6 231q-4.6 11.5-4.6 27.9 0 16.7 4.6 28.3 4.6 11.7 12.9 17.8 8.4 6.1 19.6 6.1 8.3 0 14.9-3.4 6.6-3.4 11-9.9 4.3-6.5 5.7-15.6h45.5q-1.1 19.9-10.8 35-9.7 15.1-26.7 23.6-16.9 8.5-40.1 8.5-26.7 0-45.9-11.4-19.2-11.4-29.5-31.7-10.2-20.2-10.2-46.6 0-26.7 10.3-46.9 10.4-20.2 29.5-31.6 19.2-11.4 45.5-11.4 22.8 0 39.9 8.3 17.1 8.3 27 23.2 10 15 11 35.1h-45.5q-1.9-13-10.1-21-8.2-8-21.5-8-11.2 0-19.5 6.1-8.3 6-13 17.6z"/><path class="f" d="m2386.3 307.8l7.6 35.9q-3.7 1.2-10.2 2.7-6.6 1.5-16 1.8-17.4 0.7-30.5-4.6-13.1-5.3-20.3-16.5-7.2-11.2-7.1-28.3v-90.6h-23.8v-36.2h23.8v-41.6h48.2v41.6h32.7v36.2h-32.7v84.2q0 6.7 2 10.4 2.1 3.7 5.7 5.1 3.7 1.5 8.6 1.5 3.4 0 6.8-0.6 3.4-0.6 5.2-1z"/><path class="g" d="m2554.8 345.9v36.5h-152.2v-36.5z"/></svg>